<?xml version="1.0" encoding="UTF-8" standalone="no"?>
<svg
   class="svg-standalone-icon"
   width="100"
   viewBox="227.48536 194.44483 100 100"
   version="1.1"
   id="svg6"
   sodipodi:docname="Logo.svg"
   height="100"
   inkscape:version="1.2.2 (732a01da63, 2022-12-09)"
   inkscape:export-filename="Logo.png"
   inkscape:export-xdpi="600"
   inkscape:export-ydpi="600"
   xmlns:inkscape="http://www.inkscape.org/namespaces/inkscape"
   xmlns:sodipodi="http://sodipodi.sourceforge.net/DTD/sodipodi-0.dtd"
   xmlns="http://www.w3.org/2000/svg"
   xmlns:svg="http://www.w3.org/2000/svg">
  <defs
     id="defs10">
    <inkscape:path-effect
       effect="bspline"
       id="path-effect4975"
       is_visible="true"
       lpeversion="1"
       weight="33.333333"
       steps="2"
       helper_size="0"
       apply_no_weight="true"
       apply_with_weight="true"
       only_selected="false" />
    <inkscape:path-effect
       effect="bspline"
       id="path-effect4969"
       is_visible="true"
       lpeversion="1"
       weight="33.333333"
       steps="2"
       helper_size="0"
       apply_no_weight="true"
       apply_with_weight="true"
       only_selected="false" />
    <inkscape:path-effect
       effect="bspline"
       id="path-effect4975-0"
       is_visible="true"
       lpeversion="1"
       weight="33.333333"
       steps="2"
       helper_size="0"
       apply_no_weight="true"
       apply_with_weight="true"
       only_selected="false" />
  </defs>
  <sodipodi:namedview
     id="namedview8"
     pagecolor="#ffffff"
     bordercolor="#000000"
     borderopacity="0.25"
     inkscape:showpageshadow="2"
     inkscape:pageopacity="0.0"
     inkscape:pagecheckerboard="true"
     inkscape:deskcolor="#d1d1d1"
     showgrid="false"
     inkscape:zoom="7.3491368"
     inkscape:cx="91.235205"
     inkscape:cy="78.512622"
     inkscape:window-width="2743"
     inkscape:window-height="1464"
     inkscape:window-x="-9"
     inkscape:window-y="-9"
     inkscape:window-maximized="1"
     inkscape:current-layer="svg6">
    <inkscape:grid
       type="xygrid"
       id="grid958" />
  </sodipodi:namedview>
  <g
     data-paper-data="{&quot;fillRule&quot;:&quot;nonzero&quot;,&quot;fillRuleOriginal&quot;:&quot;nonzero&quot;,&quot;isIcon&quot;:true,&quot;iconStyle&quot;:&quot;icon-in-text&quot;,&quot;selectedEffects&quot;:{&quot;container&quot;:&quot;&quot;,&quot;transformation&quot;:&quot;&quot;,&quot;pattern&quot;:&quot;&quot;},&quot;bounds&quot;:{&quot;x&quot;:227.4853579081352,&quot;y&quot;:194.44482798217098,&quot;width&quot;:71.21488206330775,&quot;height&quot;:81.11034403565804},&quot;iconType&quot;:&quot;icon&quot;,&quot;rawIconId&quot;:&quot;180b2b23-3fff-4c45-867a-c3218200bccd&quot;,&quot;isDetailed&quot;:false,&quot;suitableAsStandaloneIcon&quot;:true}"
     fill-rule="nonzero"
     id="g4"
     transform="translate(14.39257,9.44484)">
    <path
       d="m 283.53261,254.95314 v 2.91997 c -3.1633,0.48666 -6.81327,0.64888 -6.97549,0.64888 v -3.24441 c 0,-11.761 -2.27109,-18.08761 -13.95098,-18.08761 h -11.43656 v 38.36519 h -6.97549 v -63.34718 c 0.56777,-0.16222 2.91997,-0.40555 6.97549,-0.56777 v 19.54759 h 11.92322 c 10.38212,0 14.19431,-6.32661 14.19431,-16.05985 0,-5.92106 -1.94665,-9.65213 -3.8933,-11.35545 -2.18998,-2.10887 -5.35328,-3.32552 -9.57102,-3.32552 h -12.65321 v 3.40663 c -0.0811,0 -4.46107,0.16222 -6.97549,0.40555 v -9.81435 h 20.3587 c 9.16547,0 15.16763,3.81219 18.0065,10.46323 1.13554,2.83886 1.78443,6.89438 1.78443,10.05768 0,12.32877 -5.75883,17.43872 -10.9499,19.14204 7.94881,2.59553 10.13879,9.73324 10.13879,20.84536 z m -7.38105,-43.9618 c -3.40663,-0.16222 -7.62437,-0.16222 -12.81543,-0.16222 -4.29885,0 -8.35437,0 -11.43656,0.0811 -2.91997,0.0811 -6.2455,0.32444 -8.43548,0.64888 -8.84103,1.62221 -8.5977,6.89438 -8.5977,23.68422 0,13.70765 1.29777,17.51983 3.24441,20.68314 0.89221,1.45999 2.67664,2.27109 5.35328,2.83886 v 6.48883 c -6.00217,-0.64888 -8.5977,-2.10887 -11.27434,-4.86662 -3.81219,-3.97441 -4.7044,-8.75992 -4.7044,-25.14421 0,-18.73649 1.21666,-23.44089 7.38104,-27.4153 4.54218,-2.91997 10.05768,-3.00108 17.03317,-3.24441 4.21774,-0.0811 9.89546,-0.0811 16.62762,-0.0811 h 4.54218 c 1.5411,1.5411 2.67664,4.13663 3.08219,6.48883 z m 21.98091,13.05876 c -0.24333,-9.57102 -1.5411,-13.38321 -5.59661,-16.14096 -2.02776,-1.5411 -4.62329,-2.43331 -9.16547,-2.91997 0.89221,2.10887 1.37888,4.78551 1.62221,7.0566 5.27217,1.45999 6.08328,4.46107 6.08328,10.46323 v 1.5411 z m 0.56777,21.00758 v 2.51442 c 0,7.21882 -0.72999,10.38212 -3.08219,13.05877 -2.27109,2.75775 -5.27217,3.8933 -10.70657,4.54218 -2.67664,0.24333 -6.89438,0.40555 -9.00325,0.48666 -4.05552,0.16222 -8.75992,0.24333 -12.81543,0.24333 -4.21774,0 -8.11103,0 -11.19323,-0.0811 v -6.32661 c 2.67664,0.0811 6.16439,0.0811 9.89546,0.0811 5.67772,0 10.30101,0 14.03209,-0.16222 2.43331,-0.0811 6.65105,-0.48666 8.43548,-0.8111 6.40772,-1.29777 7.38104,-4.13663 7.38104,-10.13879 v -3.40663 z m -15.08652,21.00758 c -3.24441,0.24333 -6.73216,0.32444 -6.97549,0.32444 0.16222,3.64997 0.40555,7.0566 1.05443,9.16547 h 6.97549 c -0.64888,-2.59553 -0.89221,-5.83994 -1.05443,-9.48991 z"
       data-paper-data="{&quot;isPathIcon&quot;:true}"
       style="fill:#002e3e"
       id="path2" />
  </g>
  <path
     sodipodi:type="star"
     style="fill:#002e3e;fill-opacity:1;fill-rule:nonzero;stroke:none;stroke-width:0;stroke-dasharray:none;stroke-dashoffset:0;stroke-opacity:1"
     id="path5749"
     inkscape:flatsided="true"
     sodipodi:sides="3"
     sodipodi:cx="81.495209"
     sodipodi:cy="58.788162"
     sodipodi:r1="7.1362405"
     sodipodi:r2="3.5681205"
     sodipodi:arg1="-1.5707963"
     sodipodi:arg2="-0.52359878"
     inkscape:rounded="0"
     inkscape:randomized="0"
     d="m 81.495209,51.651922 6.180165,10.704361 -12.360331,-10e-7 z"
     transform="translate(227.97032,192.22791)"
     inkscape:transform-center-y="-1.7840602" />
</svg>
