<svg xmlns="http://www.w3.org/2000/svg" width="512" height="512" viewBox="0 0 512 512" style="overflow: visible;" data-svgdocument="" id="_pEDm0HblCEwRjlfPlxXTx" class="fl-svgdocument" x="0" y="0" overflow="hidden"><g id="_g_CIQ9YJqgq5WBZovRyea" transform="matrix(0.8125003307190536, 0, 0, 0.8125003307190536, 50.1404017726631, 50.829843690642065)" data-uid="o_faeadce6c_6"><path id="_f9NM6x3hH3hn7-ve3tmvB" d="M93.557 74.68C97.657 67.426 100 59.1 100 50.171C100 42.581 98.306 35 95.28 29H67.138L93.557 74.68z" fill="#ec4c4c" transform="matrix(1.7237441539764404, 0, 0, 1.7237441539764404, 167.5309600830078, 118.81229400634766)" data-uid="o_faeadce6c_7"></path><path id="_kS9XL-tDArs_VyLB_ashM" d="M6.431 25.554C2.338 32.804 0 41.222 0 50.142C0 57.962 1.797 65 4.998 72h28.179L6.431 25.554z" fill="#4c96d7" transform="matrix(1.7237441539764404, 0, 0, 1.7237441539764404, 166.9049072265625, 118.71910095214844)" data-uid="o_faeadce6c_8"></path><path id="_M5OK62uQNkZsQG2OSwqyv" d="M40.106 25h53.14c-7.97-14-22.26-23.262-38.877-24.701L40.106 25z" fill="#f2af58" transform="matrix(1.7237441539764404, 0, 0, 1.7237441539764404, 166.72300720214844, 119.15763092041016)" data-uid="o_faeadce6c_9"></path><path id="_RnTc_FQl4s9NikYYObH8Z" d="M23.125 46.318L49.863 0.006C32.858 0.052 17.851 8.588 8.853 21.598L23.125 46.318z" fill="#74d14c" transform="matrix(1.7237441539764404, 0, 0, 1.7237441539764404, 167.15830993652344, 119.66279602050781)" data-uid="o_faeadce6c_10"></path><path id="_QXvoTpEt1jxN9UMCpTpPs" d="M77.189 54.316L50.816 99.994c16.709-0.268 31.424-8.729 40.306-21.544L77.189 54.316z" fill="#d65ab1" transform="matrix(1.7237441539764404, 0, 0, 1.7237441539764404, 166.36190795898438, 119.9916763305664)" data-uid="o_faeadce6c_11"></path><path id="_8IREIdAkWTPuuwc5YqA-_" d="M60.209 76H7.101c8.136 13 22.514 22.937 39.16 24.168L60.209 76z" fill="#a55fc1" transform="matrix(1.7237441539764404, 0, 0, 1.7237441539764404, 166.73023986816406, 119.67530822753906)" data-uid="o_faeadce6c_12"></path></g></svg>